HIERARCHY
ROOT root
{
	OFFSET	0	13.1	24.9
	CHANNELS 6  Xposition Yposition Zposition Xrotation Yrotation Zrotation
	JOINT spine_1
	{
		OFFSET	0	9.99999	0
		CHANNELS 3  Xrotation Yrotation Zrotation
		JOINT spine_2
		{
			OFFSET	0	112	-10
			CHANNELS 3  Xrotation Yrotation Zrotation
			JOINT spine_3
			{
				OFFSET	0	206.5	19.3
				CHANNELS 3  Xrotation Yrotation Zrotation
				JOINT spine_4
				{
					OFFSET	0	110.4	14.6
					CHANNELS 3  Xrotation Yrotation Zrotation
					JOINT neck_1
					{
						OFFSET	0	71.8	-50.3
						CHANNELS 3  Xrotation Yrotation Zrotation
						JOINT neck_2
						{
							OFFSET	0	86.2	-25.8
							CHANNELS 3  Xrotation Yrotation Zrotation
							JOINT head_ee
							{
								OFFSET	0	179.8	-8.7
								CHANNELS 3  Xrotation Yrotation Zrotation
								End Site
								{
									OFFSET	1	0	0
								}
							}
						}
					}
					JOINT left_clavicle
					{
						OFFSET	-43.2	22.4	-70.8
						CHANNELS 3  Xrotation Yrotation Zrotation
						JOINT left_shoulder
						{
							OFFSET	-93.9	-5.79999	48.7
							CHANNELS 3  Xrotation Yrotation Zrotation
							JOINT left_elbow
							{
								OFFSET	-291.4	-30.8	15.2
								CHANNELS 3  Xrotation Yrotation Zrotation
								JOINT left_lowarm_twist
								{
									OFFSET	-110.7	-3.89999	13.6
									CHANNELS 3  Xrotation Yrotation Zrotation
									JOINT left_hand
									{
										OFFSET	-110.7	-3.89999	13.6
										CHANNELS 3  Xrotation Yrotation Zrotation
										JOINT left_ee
										{
											OFFSET	-80.8	-5.10001	12.1
											CHANNELS 3  Xrotation Yrotation Zrotation
											End Site
											{
												OFFSET	1	0	0
											}
										}
									}
								}
							}
						}
					}
					JOINT right_clavicle
					{
						OFFSET	43.2	22.4	-70.8
						CHANNELS 3  Xrotation Yrotation Zrotation
						JOINT right_shoulder
						{
							OFFSET	93.9	-5.79999	48.7
							CHANNELS 3  Xrotation Yrotation Zrotation
							JOINT right_elbow
							{
								OFFSET	291.4	-30.8	15.2
								CHANNELS 3  Xrotation Yrotation Zrotation
								JOINT right_lowarm_twist
								{
									OFFSET	110.7	-3.89999	13.6
									CHANNELS 3  Xrotation Yrotation Zrotation
									JOINT right_hand
									{
										OFFSET	110.7	-3.89999	13.6
										CHANNELS 3  Xrotation Yrotation Zrotation
										JOINT right_ee
										{
											OFFSET	80.8	-5.10001	12.1
											CHANNELS 3  Xrotation Yrotation Zrotation
											End Site
											{
												OFFSET	1	0	0
											}
										}
									}
								}
							}
						}
					}
				}
			}
		}
	}
	JOINT left_hip
	{
		OFFSET	-82.8	-127.5	0.300001
		CHANNELS 3  Xrotation Yrotation Zrotation
		JOINT left_knee
		{
			OFFSET	-28.2	-396.7	2.2
			CHANNELS 3  Xrotation Yrotation Zrotation
			JOINT left_ankle
			{
				OFFSET	-11.7	-411.3	35.4
				CHANNELS 3  Xrotation Yrotation Zrotation
				JOINT left_toes
				{
					OFFSET	0	-60	-88.6
					CHANNELS 3  Xrotation Yrotation Zrotation
					JOINT left_foot_ee
					{
						OFFSET	-22.5	-16.5	-42.2
						CHANNELS 3  Xrotation Yrotation Zrotation
						End Site
						{
							OFFSET	1	0	0
						}
					}
				}
			}
		}
	}
	JOINT right_hip
	{
		OFFSET	82.8	-127.5	0.300001
		CHANNELS 3  Xrotation Yrotation Zrotation
		JOINT right_knee
		{
			OFFSET	28.2	-396.7	2.2
			CHANNELS 3  Xrotation Yrotation Zrotation
			JOINT right_ankle
			{
				OFFSET	11.7	-411.3	35.4
				CHANNELS 3  Xrotation Yrotation Zrotation
				JOINT right_toes
				{
					OFFSET	0	-60	-88.6
					CHANNELS 3  Xrotation Yrotation Zrotation
					JOINT right_foot_ee
					{
						OFFSET	22.5	-16.5	-42.2
						CHANNELS 3  Xrotation Yrotation Zrotation
						End Site
						{
							OFFSET	1	0	0
						}
					}
				}
			}
		}
	}
}
MOTION
Frames: 11
Frame Time: 0.02
712.908204616 617.208 -1761.24124818 -11.6186895701 61.6194515004 25.6334993727 4.19272 -0.471628 -4.5106 4.20401 -0.183952 -4.53141 4.21134 0.443017 -4.51349 4.18303 -0.274611 -4.52683 3.64822 -7.62478 1.55168 3.90568 -14.5579 1.28682 -0.0 0.0 -0.0 3.99972 20.2262 8.2291 -14.3364 7.17559 74.537 0.193779 -5.48331 0.00927964 -16.3258 -0.85201 1.89868 4.67788 12.8376 37.7383 -0.0 0.0 -0.0 1.87414 -21.3373 -5.16305 -10.0318 -2.9511 -61.8186 0.487815 13.5852 -0.0581049 6.85175 -0.190532 0.853968 4.39477 -20.4968 -37.2673 0.0 0.0 0.0 16.0612 -25.7383 -13.9915 -25.5056 0.189811 3.87726 30.476 26.9536 -4.21343 10.8423 -0.0 -0.0 -0.0 0.0 -0.0 20.1756 9.11621 -18.4666 -31.2405 0.00544249 -4.73537 12.8932 -20.0782 1.85671 16.9583 -0.0 -0.0 0.0 0.0 0.0 
706.147691654 619.644 -1758.37270821 -13.3666447527 61.0758680037 27.6174582081 4.18802 -0.748139 -4.81202 4.20079 -0.440791 -4.84975 4.22994 0.230216 -4.86426 4.19734 -0.539972 -4.83973 2.94384 -7.27358 2.17591 3.20025 -14.5365 1.93384 -0.0 0.0 -0.0 3.99459 21.3635 8.22039 -15.4588 7.466 75.3874 0.238236 -6.73081 0.0140095 -16.0921 -0.836058 1.87336 4.6006 12.542 37.0213 -0.0 0.0 -0.0 1.67359 -19.65 -4.76659 -9.28172 -2.37996 -61.6536 0.475746 13.2612 -0.0553033 7.39344 -0.201215 0.922338 3.90217 -20.4327 -33.5259 0.0 0.0 0.0 16.6197 -25.337 -14.1512 -26.1949 0.170903 3.98135 33.1456 26.1865 -4.49486 11.1298 -0.0 -0.0 -0.0 0.0 -0.0 22.8302 8.57591 -18.7116 -28.7771 -0.0889597 -4.36914 10.9838 -20.2915 1.59338 16.8716 -0.0 -0.0 0.0 0.0 0.0 
685.357502789 621.445 -1740.56989397 -16.840079957 65.5973072577 31.432401513 4.07926 -0.835524 -5.19337 4.09411 -0.503828 -5.23585 4.1311 0.229842 -5.25496 4.09309 -0.601808 -5.22552 6.52724 -6.63674 0.467161 6.71447 -11.6511 0.328255 -0.0 0.0 -0.0 5.59357 16.7139 10.7416 -17.5161 8.07159 76.5068 0.189509 -5.36318 0.00887599 -15.6033 -0.803044 1.82021 4.50557 16.5257 37.2996 -0.0 0.0 -0.0 0.5534 -16.9514 -2.84594 -9.96505 -1.98712 -64.0334 0.505682 14.0634 -0.0623744 9.68649 -0.239259 1.21276 3.19453 -22.9229 -29.0319 0.0 0.0 0.0 14.6742 -25.6055 -14.0837 -25.7903 0.182153 3.92028 29.9171 25.9073 -4.12038 12.0826 -0.0 -0.0 -0.0 0.0 -0.0 26.9335 8.35987 -18.6109 -24.4015 -0.217484 -3.71009 11.0078 -23.7508 1.62129 18.5436 -0.0 -0.0 0.0 0.0 0.0 
680.277731001 621.163 -1740.02421781 -20.1454491778 68.7465711444 34.987876744 3.97392 -1.18978 -5.29209 3.98909 -0.851113 -5.35681 4.05988 -0.0919739 -5.42303 4.02011 -0.94605 -5.34091 5.66318 -6.35583 1.79858 5.89193 -12.4213 1.82041 -0.0 0.0 -0.0 6.00048 13.5707 11.5116 -17.7338 7.88374 78.2878 0.195523 -5.53236 0.00944702 -15.8021 -0.81642 1.84186 4.77596 18.327 39.8978 -0.0 0.0 -0.0 0.207271 -15.8394 -2.18854 -10.1896 1.64826 -65.6438 0.491536 13.685 -0.0589822 11.0688 -0.256567 1.38847 3.02898 -26.5522 -28.6347 0.0 0.0 0.0 13.9682 -25.9794 -14.2839 -25.1807 0.198289 3.82812 27.9369 25.5896 -3.87884 10.5261 -0.0 -0.0 -0.0 0.0 -0.0 27.2651 7.2285 -17.428 -21.6203 -0.272866 -3.28694 8.36425 -21.2705 1.22827 19.7189 -0.0 -0.0 0.0 0.0 0.0 
678.768045131 617.588 -1750.61456541 -20.0802309078 68.8004620019 34.5025361226 3.68265 -1.1432 -5.12937 3.69691 -0.814942 -5.19149 3.76372 -0.0519591 -5.25463 3.72629 -0.88005 -5.18088 6.18694 -6.93335 1.22555 6.42557 -12.857 1.1811 -0.0 0.0 -0.0 6.31617 12.0311 12.1012 -17.7675 6.20776 78.5107 0.210491 -5.95293 0.0109447 -15.7929 -0.815796 1.84086 4.70285 18.562 39.3458 -0.0 0.0 -0.0 0.158909 -15.6074 -2.08656 -8.63534 -1.72254 -66.0186 0.495042 13.7789 -0.0598145 12.2889 -0.268317 1.54387 3.0526 -25.3324 -28.5625 0.0 0.0 0.0 13.8845 -26.5212 -13.7943 -25.4284 0.191852 3.86558 27.0251 25.4259 -3.76537 9.64569 -0.0 -0.0 -0.0 0.0 -0.0 27.3465 7.33188 -17.466 -22.0855 -0.265036 -3.35788 10.7785 -24.265 1.59282 21.1052 -0.0 -0.0 0.0 0.0 0.0 
677.636478705 618.775 -1760.31149832 -20.5039088508 68.7463515061 35.2069119205 3.65544 -1.22358 -5.04176 3.66913 -0.90071 -5.10916 3.74284 -0.147251 -5.18566 3.70662 -0.963305 -5.09776 6.5108 -6.70086 1.59995 6.76043 -12.7649 1.6535 -0.0 0.0 -0.0 6.54482 7.92005 12.6265 -18.197 5.13604 78.893 0.190751 -5.39813 0.00899249 -15.7876 -0.815436 1.84028 4.83389 20.0321 40.7057 -0.0 0.0 -0.0 0.0081349 -15.1821 -1.79884 -8.3819 -0.616367 -67.7634 0.529658 14.7019 -0.0683299 13.4032 -0.276156 1.68598 3.1306 -26.0905 -29.2189 0.0 0.0 0.0 11.9602 -27.1902 -15.7528 -24.2128 0.221891 3.68146 25.314 25.4891 -3.55718 7.35214 -0.0 -0.0 -0.0 0.0 -0.0 27.0592 8.07465 -18.1615 -19.8322 -0.297597 -3.01369 8.90274 -22.5165 1.31225 21.3777 -0.0 -0.0 0.0 0.0 0.0 
679.429958454 618.775 -1768.26098065 -19.434496056 67.5666054145 34.0548464836 3.65544 -1.22358 -5.04176 3.66913 -0.90071 -5.10916 3.74284 -0.147251 -5.18566 3.70662 -0.963305 -5.09776 6.5108 -6.70086 1.59995 6.76043 -12.7649 1.6535 -0.0 0.0 -0.0 6.54482 7.92005 12.6265 -18.197 5.13604 78.893 0.190751 -5.39813 0.00899249 -15.7876 -0.815436 1.84028 4.83389 20.0321 40.7057 -0.0 0.0 -0.0 0.0081349 -15.1821 -1.79884 -8.3819 -0.616367 -67.7634 0.529658 14.7019 -0.0683299 13.4032 -0.276156 1.68598 3.1306 -26.0905 -29.2189 0.0 0.0 0.0 11.9602 -27.1902 -15.7528 -24.2128 0.221891 3.68146 25.314 25.4891 -3.55718 7.35214 -0.0 -0.0 -0.0 0.0 -0.0 27.0592 8.07465 -18.1615 -19.8322 -0.297597 -3.01369 8.90274 -22.5165 1.31225 21.3777 -0.0 -0.0 0.0 0.0 0.0 
680.288128169 618.775 -1771.80233024 -18.9929351694 67.0366455844 33.5762206716 3.65544 -1.22358 -5.04176 3.66913 -0.90071 -5.10916 3.74284 -0.147251 -5.18566 3.70662 -0.963305 -5.09776 6.5108 -6.70086 1.59995 6.76043 -12.7649 1.6535 -0.0 0.0 -0.0 6.54482 7.92005 12.6265 -18.197 5.13604 78.893 0.190751 -5.39813 0.00899249 -15.7876 -0.815436 1.84028 4.83389 20.0321 40.7057 -0.0 0.0 -0.0 0.0081349 -15.1821 -1.79884 -8.3819 -0.616367 -67.7634 0.529658 14.7019 -0.0683299 13.4032 -0.276156 1.68598 3.1306 -26.0905 -29.2189 0.0 0.0 0.0 11.9602 -27.1902 -15.7528 -24.2128 0.221891 3.68146 25.314 25.4891 -3.55718 7.35214 -0.0 -0.0 -0.0 0.0 -0.0 27.0592 8.07465 -18.1615 -19.8322 -0.297597 -3.01369 8.90274 -22.5165 1.31225 21.3777 -0.0 -0.0 0.0 0.0 0.0 
680.643613714 618.775 -1773.22646833 -18.8209451181 66.8227710501 33.3892803546 3.65544 -1.22358 -5.04176 3.66913 -0.90071 -5.10916 3.74284 -0.147251 -5.18566 3.70662 -0.963305 -5.09776 6.5108 -6.70086 1.59995 6.76043 -12.7649 1.6535 -0.0 0.0 -0.0 6.54482 7.92005 12.6265 -18.197 5.13604 78.893 0.190751 -5.39813 0.00899249 -15.7876 -0.815436 1.84028 4.83389 20.0321 40.7057 -0.0 0.0 -0.0 0.0081349 -15.1821 -1.79884 -8.3819 -0.616367 -67.7634 0.529658 14.7019 -0.0683299 13.4032 -0.276156 1.68598 3.1306 -26.0905 -29.2189 0.0 0.0 0.0 11.9602 -27.1902 -15.7528 -24.2128 0.221891 3.68146 25.314 25.4891 -3.55718 7.35214 -0.0 -0.0 -0.0 0.0 -0.0 27.0592 8.07465 -18.1615 -19.8322 -0.297597 -3.01369 8.90274 -22.5165 1.31225 21.3777 -0.0 -0.0 0.0 0.0 0.0 
680.899583105 618.775 -1774.2373968 -18.7007304474 66.6706906812 33.2584372398 3.65544 -1.22358 -5.04176 3.66913 -0.90071 -5.10916 3.74284 -0.147251 -5.18566 3.70662 -0.963305 -5.09776 6.5108 -6.70086 1.59995 6.76043 -12.7649 1.6535 -0.0 0.0 -0.0 6.54482 7.92005 12.6265 -18.197 5.13604 78.893 0.190751 -5.39813 0.00899249 -15.7876 -0.815436 1.84028 4.83389 20.0321 40.7057 -0.0 0.0 -0.0 0.0081349 -15.1821 -1.79884 -8.3819 -0.616367 -67.7634 0.529658 14.7019 -0.0683299 13.4032 -0.276156 1.68598 3.1306 -26.0905 -29.2189 0.0 0.0 0.0 11.9602 -27.1902 -15.7528 -24.2128 0.221891 3.68146 25.314 25.4891 -3.55718 7.35214 -0.0 -0.0 -0.0 0.0 -0.0 27.0592 8.07465 -18.1615 -19.8322 -0.297597 -3.01369 8.90274 -22.5165 1.31225 21.3777 -0.0 -0.0 0.0 0.0 0.0 
681.226578067 618.775 -1775.51184212 -18.5513463411 66.4786599221 33.0956350384 3.65544 -1.22358 -5.04176 3.66913 -0.90071 -5.10916 3.74284 -0.147251 -5.18566 3.70662 -0.963305 -5.09776 6.5108 -6.70086 1.59995 6.76043 -12.7649 1.6535 -0.0 0.0 -0.0 6.54482 7.92005 12.6265 -18.197 5.13604 78.893 0.190751 -5.39813 0.00899249 -15.7876 -0.815436 1.84028 4.83389 20.0321 40.7057 -0.0 0.0 -0.0 0.0081349 -15.1821 -1.79884 -8.3819 -0.616367 -67.7634 0.529658 14.7019 -0.0683299 13.4032 -0.276156 1.68598 3.1306 -26.0905 -29.2189 0.0 0.0 0.0 11.9602 -27.1902 -15.7528 -24.2128 0.221891 3.68146 25.314 25.4891 -3.55718 7.35214 -0.0 -0.0 -0.0 0.0 -0.0 27.0592 8.07465 -18.1615 -19.8322 -0.297597 -3.01369 8.90274 -22.5165 1.31225 21.3777 -0.0 -0.0 0.0 0.0 0.0 
